<?xml version="1.0" encoding="utf-8"?>
<svg xmlns="http://www.w3.org/2000/svg" xmlns:xlink="http://www.w3.org/1999/xlink" width="600" height="400" viewBox="0 0 2400 1600">
<defs>
  <clipPath id="clip260">
    <rect x="0" y="0" width="2400" height="1600"/>
  </clipPath>
</defs>
<path clip-path="url(#clip260)" d="
M0 1600 L2400 1600 L2400 0 L0 0  Z
  " fill="#ffffff" fill-rule="evenodd" fill-opacity="1"/>
<defs>
  <clipPath id="clip261">
    <rect x="480" y="0" width="1681" height="1600"/>
  </clipPath>
</defs>
<path clip-path="url(#clip260)" d="
M202.177 1486.45 L2352.76 1486.45 L2352.76 47.2441 L202.177 47.2441  Z
  " fill="#ffffff" fill-rule="evenodd" fill-opacity="1"/>
<defs>
  <clipPath id="clip262">
    <rect x="202" y="47" width="2152" height="1440"/>
  </clipPath>
</defs>
<polyline clip-path="url(#clip262)" style="stroke:#000000; stroke-linecap:butt; stroke-linejoin:round; stroke-width:2; stroke-opacity:0.1; fill:none" points="
  320.462,1486.45 320.462,47.2441 
  "/>
<polyline clip-path="url(#clip262)" style="stroke:#000000; stroke-linecap:butt; stroke-linejoin:round; stroke-width:2; stroke-opacity:0.1; fill:none" points="
  789.582,1486.45 789.582,47.2441 
  "/>
<polyline clip-path="url(#clip262)" style="stroke:#000000; stroke-linecap:butt; stroke-linejoin:round; stroke-width:2; stroke-opacity:0.1; fill:none" points="
  1258.7,1486.45 1258.7,47.2441 
  "/>
<polyline clip-path="url(#clip262)" style="stroke:#000000; stroke-linecap:butt; stroke-linejoin:round; stroke-width:2; stroke-opacity:0.1; fill:none" points="
  1727.82,1486.45 1727.82,47.2441 
  "/>
<polyline clip-path="url(#clip262)" style="stroke:#000000; stroke-linecap:butt; stroke-linejoin:round; stroke-width:2; stroke-opacity:0.1; fill:none" points="
  2196.94,1486.45 2196.94,47.2441 
  "/>
<polyline clip-path="url(#clip260)" style="stroke:#000000; stroke-linecap:butt; stroke-linejoin:round; stroke-width:4; stroke-opacity:1; fill:none" points="
  202.177,1486.45 2352.76,1486.45 
  "/>
<polyline clip-path="url(#clip260)" style="stroke:#000000; stroke-linecap:butt; stroke-linejoin:round; stroke-width:4; stroke-opacity:1; fill:none" points="
  320.462,1486.45 320.462,1467.55 
  "/>
<polyline clip-path="url(#clip260)" style="stroke:#000000; stroke-linecap:butt; stroke-linejoin:round; stroke-width:4; stroke-opacity:1; fill:none" points="
  789.582,1486.45 789.582,1467.55 
  "/>
<polyline clip-path="url(#clip260)" style="stroke:#000000; stroke-linecap:butt; stroke-linejoin:round; stroke-width:4; stroke-opacity:1; fill:none" points="
  1258.7,1486.45 1258.7,1467.55 
  "/>
<polyline clip-path="url(#clip260)" style="stroke:#000000; stroke-linecap:butt; stroke-linejoin:round; stroke-width:4; stroke-opacity:1; fill:none" points="
  1727.82,1486.45 1727.82,1467.55 
  "/>
<polyline clip-path="url(#clip260)" style="stroke:#000000; stroke-linecap:butt; stroke-linejoin:round; stroke-width:4; stroke-opacity:1; fill:none" points="
  2196.94,1486.45 2196.94,1467.55 
  "/>
<path clip-path="url(#clip260)" d="M282.766 1517.37 Q279.155 1517.37 277.326 1520.93 Q275.52 1524.47 275.52 1531.6 Q275.52 1538.71 277.326 1542.27 Q279.155 1545.82 282.766 1545.82 Q286.4 1545.82 288.206 1542.27 Q290.034 1538.71 290.034 1531.6 Q290.034 1524.47 288.206 1520.93 Q286.4 1517.37 282.766 1517.37 M282.766 1513.66 Q288.576 1513.66 291.632 1518.27 Q294.71 1522.85 294.71 1531.6 Q294.71 1540.33 291.632 1544.94 Q288.576 1549.52 282.766 1549.52 Q276.956 1549.52 273.877 1544.94 Q270.821 1540.33 270.821 1531.6 Q270.821 1522.85 273.877 1518.27 Q276.956 1513.66 282.766 1513.66 Z" fill="#000000" fill-rule="evenodd" fill-opacity="1" /><path clip-path="url(#clip260)" d="M302.928 1542.97 L307.812 1542.97 L307.812 1548.85 L302.928 1548.85 L302.928 1542.97 Z" fill="#000000" fill-rule="evenodd" fill-opacity="1" /><path clip-path="url(#clip260)" d="M327.997 1517.37 Q324.386 1517.37 322.557 1520.93 Q320.752 1524.47 320.752 1531.6 Q320.752 1538.71 322.557 1542.27 Q324.386 1545.82 327.997 1545.82 Q331.631 1545.82 333.437 1542.27 Q335.266 1538.71 335.266 1531.6 Q335.266 1524.47 333.437 1520.93 Q331.631 1517.37 327.997 1517.37 M327.997 1513.66 Q333.807 1513.66 336.863 1518.27 Q339.941 1522.85 339.941 1531.6 Q339.941 1540.33 336.863 1544.94 Q333.807 1549.52 327.997 1549.52 Q322.187 1549.52 319.108 1544.94 Q316.053 1540.33 316.053 1531.6 Q316.053 1522.85 319.108 1518.27 Q322.187 1513.66 327.997 1513.66 Z" fill="#000000" fill-rule="evenodd" fill-opacity="1" /><path clip-path="url(#clip260)" d="M358.159 1517.37 Q354.548 1517.37 352.719 1520.93 Q350.914 1524.47 350.914 1531.6 Q350.914 1538.71 352.719 1542.27 Q354.548 1545.82 358.159 1545.82 Q361.793 1545.82 363.599 1542.27 Q365.427 1538.71 365.427 1531.6 Q365.427 1524.47 363.599 1520.93 Q361.793 1517.37 358.159 1517.37 M358.159 1513.66 Q363.969 1513.66 367.025 1518.27 Q370.103 1522.85 370.103 1531.6 Q370.103 1540.33 367.025 1544.94 Q363.969 1549.52 358.159 1549.52 Q352.349 1549.52 349.27 1544.94 Q346.215 1540.33 346.215 1531.6 Q346.215 1522.85 349.27 1518.27 Q352.349 1513.66 358.159 1513.66 Z" fill="#000000" fill-rule="evenodd" fill-opacity="1" /><path clip-path="url(#clip260)" d="M752.383 1517.37 Q748.772 1517.37 746.943 1520.93 Q745.138 1524.47 745.138 1531.6 Q745.138 1538.71 746.943 1542.27 Q748.772 1545.82 752.383 1545.82 Q756.017 1545.82 757.823 1542.27 Q759.652 1538.71 759.652 1531.6 Q759.652 1524.47 757.823 1520.93 Q756.017 1517.37 752.383 1517.37 M752.383 1513.66 Q758.193 1513.66 761.249 1518.27 Q764.327 1522.85 764.327 1531.6 Q764.327 1540.33 761.249 1544.94 Q758.193 1549.52 752.383 1549.52 Q746.573 1549.52 743.494 1544.94 Q740.439 1540.33 740.439 1531.6 Q740.439 1522.85 743.494 1518.27 Q746.573 1513.66 752.383 1513.66 Z" fill="#000000" fill-rule="evenodd" fill-opacity="1" /><path clip-path="url(#clip260)" d="M772.545 1542.97 L777.429 1542.97 L777.429 1548.85 L772.545 1548.85 L772.545 1542.97 Z" fill="#000000" fill-rule="evenodd" fill-opacity="1" /><path clip-path="url(#clip260)" d="M791.642 1544.91 L807.961 1544.91 L807.961 1548.85 L786.017 1548.85 L786.017 1544.91 Q788.679 1542.16 793.262 1537.53 Q797.869 1532.88 799.049 1531.53 Q801.295 1529.01 802.174 1527.27 Q803.077 1525.51 803.077 1523.82 Q803.077 1521.07 801.133 1519.33 Q799.212 1517.6 796.11 1517.6 Q793.911 1517.6 791.457 1518.36 Q789.026 1519.13 786.249 1520.68 L786.249 1515.95 Q789.073 1514.82 791.526 1514.24 Q793.98 1513.66 796.017 1513.66 Q801.387 1513.66 804.582 1516.35 Q807.776 1519.03 807.776 1523.52 Q807.776 1525.65 806.966 1527.57 Q806.179 1529.47 804.073 1532.07 Q803.494 1532.74 800.392 1535.95 Q797.29 1539.15 791.642 1544.91 Z" fill="#000000" fill-rule="evenodd" fill-opacity="1" /><path clip-path="url(#clip260)" d="M817.823 1514.29 L836.179 1514.29 L836.179 1518.22 L822.105 1518.22 L822.105 1526.7 Q823.123 1526.35 824.142 1526.19 Q825.16 1526 826.179 1526 Q831.966 1526 835.346 1529.17 Q838.725 1532.34 838.725 1537.76 Q838.725 1543.34 835.253 1546.44 Q831.781 1549.52 825.461 1549.52 Q823.285 1549.52 821.017 1549.15 Q818.772 1548.78 816.364 1548.04 L816.364 1543.34 Q818.448 1544.47 820.67 1545.03 Q822.892 1545.58 825.369 1545.58 Q829.373 1545.58 831.711 1543.48 Q834.049 1541.37 834.049 1537.76 Q834.049 1534.15 831.711 1532.04 Q829.373 1529.94 825.369 1529.94 Q823.494 1529.94 821.619 1530.35 Q819.767 1530.77 817.823 1531.65 L817.823 1514.29 Z" fill="#000000" fill-rule="evenodd" fill-opacity="1" /><path clip-path="url(#clip260)" d="M1221 1517.37 Q1217.39 1517.37 1215.57 1520.93 Q1213.76 1524.47 1213.76 1531.6 Q1213.76 1538.71 1215.57 1542.27 Q1217.39 1545.82 1221 1545.82 Q1224.64 1545.82 1226.44 1542.27 Q1228.27 1538.71 1228.27 1531.6 Q1228.27 1524.47 1226.44 1520.93 Q1224.64 1517.37 1221 1517.37 M1221 1513.66 Q1226.82 1513.66 1229.87 1518.27 Q1232.95 1522.85 1232.95 1531.6 Q1232.95 1540.33 1229.87 1544.94 Q1226.82 1549.52 1221 1549.52 Q1215.19 1549.52 1212.12 1544.94 Q1209.06 1540.33 1209.06 1531.6 Q1209.06 1522.85 1212.12 1518.27 Q1215.19 1513.66 1221 1513.66 Z" fill="#000000" fill-rule="evenodd" fill-opacity="1" /><path clip-path="url(#clip260)" d="M1241.17 1542.97 L1246.05 1542.97 L1246.05 1548.85 L1241.17 1548.85 L1241.17 1542.97 Z" fill="#000000" fill-rule="evenodd" fill-opacity="1" /><path clip-path="url(#clip260)" d="M1256.28 1514.29 L1274.64 1514.29 L1274.64 1518.22 L1260.56 1518.22 L1260.56 1526.7 Q1261.58 1526.35 1262.6 1526.19 Q1263.62 1526 1264.64 1526 Q1270.43 1526 1273.81 1529.17 Q1277.19 1532.34 1277.19 1537.76 Q1277.19 1543.34 1273.71 1546.44 Q1270.24 1549.52 1263.92 1549.52 Q1261.75 1549.52 1259.48 1549.15 Q1257.23 1548.78 1254.82 1548.04 L1254.82 1543.34 Q1256.91 1544.47 1259.13 1545.03 Q1261.35 1545.58 1263.83 1545.58 Q1267.83 1545.58 1270.17 1543.48 Q1272.51 1541.37 1272.51 1537.76 Q1272.51 1534.15 1270.17 1532.04 Q1267.83 1529.94 1263.83 1529.94 Q1261.95 1529.94 1260.08 1530.35 Q1258.23 1530.77 1256.28 1531.65 L1256.28 1514.29 Z" fill="#000000" fill-rule="evenodd" fill-opacity="1" /><path clip-path="url(#clip260)" d="M1296.4 1517.37 Q1292.79 1517.37 1290.96 1520.93 Q1289.15 1524.47 1289.15 1531.6 Q1289.15 1538.71 1290.96 1542.27 Q1292.79 1545.82 1296.4 1545.82 Q1300.03 1545.82 1301.84 1542.27 Q1303.67 1538.71 1303.67 1531.6 Q1303.67 1524.47 1301.84 1520.93 Q1300.03 1517.37 1296.4 1517.37 M1296.4 1513.66 Q1302.21 1513.66 1305.26 1518.27 Q1308.34 1522.85 1308.34 1531.6 Q1308.34 1540.33 1305.26 1544.94 Q1302.21 1549.52 1296.4 1549.52 Q1290.59 1549.52 1287.51 1544.94 Q1284.45 1540.33 1284.45 1531.6 Q1284.45 1522.85 1287.51 1518.27 Q1290.59 1513.66 1296.4 1513.66 Z" fill="#000000" fill-rule="evenodd" fill-opacity="1" /><path clip-path="url(#clip260)" d="M1690.62 1517.37 Q1687.01 1517.37 1685.18 1520.93 Q1683.38 1524.47 1683.38 1531.6 Q1683.38 1538.71 1685.18 1542.27 Q1687.01 1545.82 1690.62 1545.82 Q1694.26 1545.82 1696.06 1542.27 Q1697.89 1538.71 1697.89 1531.6 Q1697.89 1524.47 1696.06 1520.93 Q1694.26 1517.37 1690.62 1517.37 M1690.62 1513.66 Q1696.43 1513.66 1699.49 1518.27 Q1702.57 1522.85 1702.57 1531.6 Q1702.57 1540.33 1699.49 1544.94 Q1696.43 1549.52 1690.62 1549.52 Q1684.81 1549.52 1681.73 1544.94 Q1678.68 1540.33 1678.68 1531.6 Q1678.68 1522.85 1681.73 1518.27 Q1684.81 1513.66 1690.62 1513.66 Z" fill="#000000" fill-rule="evenodd" fill-opacity="1" /><path clip-path="url(#clip260)" d="M1710.78 1542.97 L1715.67 1542.97 L1715.67 1548.85 L1710.78 1548.85 L1710.78 1542.97 Z" fill="#000000" fill-rule="evenodd" fill-opacity="1" /><path clip-path="url(#clip260)" d="M1724.67 1514.29 L1746.9 1514.29 L1746.9 1516.28 L1734.35 1548.85 L1729.46 1548.85 L1741.27 1518.22 L1724.67 1518.22 L1724.67 1514.29 Z" fill="#000000" fill-rule="evenodd" fill-opacity="1" /><path clip-path="url(#clip260)" d="M1756.06 1514.29 L1774.42 1514.29 L1774.42 1518.22 L1760.34 1518.22 L1760.34 1526.7 Q1761.36 1526.35 1762.38 1526.19 Q1763.4 1526 1764.42 1526 Q1770.21 1526 1773.58 1529.17 Q1776.96 1532.34 1776.96 1537.76 Q1776.96 1543.34 1773.49 1546.44 Q1770.02 1549.52 1763.7 1549.52 Q1761.52 1549.52 1759.26 1549.15 Q1757.01 1548.78 1754.6 1548.04 L1754.6 1543.34 Q1756.69 1544.47 1758.91 1545.03 Q1761.13 1545.58 1763.61 1545.58 Q1767.61 1545.58 1769.95 1543.48 Q1772.29 1541.37 1772.29 1537.76 Q1772.29 1534.15 1769.95 1532.04 Q1767.61 1529.94 1763.61 1529.94 Q1761.73 1529.94 1759.86 1530.35 Q1758.01 1530.77 1756.06 1531.65 L1756.06 1514.29 Z" fill="#000000" fill-rule="evenodd" fill-opacity="1" /><path clip-path="url(#clip260)" d="M2149.01 1544.91 L2156.65 1544.91 L2156.65 1518.55 L2148.34 1520.21 L2148.34 1515.95 L2156.61 1514.29 L2161.28 1514.29 L2161.28 1544.91 L2168.92 1544.91 L2168.92 1548.85 L2149.01 1548.85 L2149.01 1544.91 Z" fill="#000000" fill-rule="evenodd" fill-opacity="1" /><path clip-path="url(#clip260)" d="M2178.36 1542.97 L2183.25 1542.97 L2183.25 1548.85 L2178.36 1548.85 L2178.36 1542.97 Z" fill="#000000" fill-rule="evenodd" fill-opacity="1" /><path clip-path="url(#clip260)" d="M2203.43 1517.37 Q2199.82 1517.37 2197.99 1520.93 Q2196.19 1524.47 2196.19 1531.6 Q2196.19 1538.71 2197.99 1542.27 Q2199.82 1545.82 2203.43 1545.82 Q2207.07 1545.82 2208.87 1542.27 Q2210.7 1538.71 2210.7 1531.6 Q2210.7 1524.47 2208.87 1520.93 Q2207.07 1517.37 2203.43 1517.37 M2203.43 1513.66 Q2209.24 1513.66 2212.3 1518.27 Q2215.38 1522.85 2215.38 1531.6 Q2215.38 1540.33 2212.3 1544.94 Q2209.24 1549.52 2203.43 1549.52 Q2197.62 1549.52 2194.54 1544.94 Q2191.49 1540.33 2191.49 1531.6 Q2191.49 1522.85 2194.54 1518.27 Q2197.62 1513.66 2203.43 1513.66 Z" fill="#000000" fill-rule="evenodd" fill-opacity="1" /><path clip-path="url(#clip260)" d="M2233.6 1517.37 Q2229.98 1517.37 2228.16 1520.93 Q2226.35 1524.47 2226.35 1531.6 Q2226.35 1538.71 2228.16 1542.27 Q2229.98 1545.82 2233.6 1545.82 Q2237.23 1545.82 2239.04 1542.27 Q2240.86 1538.71 2240.86 1531.6 Q2240.86 1524.47 2239.04 1520.93 Q2237.23 1517.37 2233.6 1517.37 M2233.6 1513.66 Q2239.41 1513.66 2242.46 1518.27 Q2245.54 1522.85 2245.54 1531.6 Q2245.54 1540.33 2242.46 1544.94 Q2239.41 1549.52 2233.6 1549.52 Q2227.79 1549.52 2224.71 1544.94 Q2221.65 1540.33 2221.65 1531.6 Q2221.65 1522.85 2224.71 1518.27 Q2227.79 1513.66 2233.6 1513.66 Z" fill="#000000" fill-rule="evenodd" fill-opacity="1" /><polyline clip-path="url(#clip262)" style="stroke:#000000; stroke-linecap:butt; stroke-linejoin:round; stroke-width:2; stroke-opacity:0.1; fill:none" points="
  202.177,1445.72 2352.76,1445.72 
  "/>
<polyline clip-path="url(#clip262)" style="stroke:#000000; stroke-linecap:butt; stroke-linejoin:round; stroke-width:2; stroke-opacity:0.1; fill:none" points="
  202.177,1160.84 2352.76,1160.84 
  "/>
<polyline clip-path="url(#clip262)" style="stroke:#000000; stroke-linecap:butt; stroke-linejoin:round; stroke-width:2; stroke-opacity:0.1; fill:none" points="
  202.177,875.955 2352.76,875.955 
  "/>
<polyline clip-path="url(#clip262)" style="stroke:#000000; stroke-linecap:butt; stroke-linejoin:round; stroke-width:2; stroke-opacity:0.1; fill:none" points="
  202.177,591.075 2352.76,591.075 
  "/>
<polyline clip-path="url(#clip262)" style="stroke:#000000; stroke-linecap:butt; stroke-linejoin:round; stroke-width:2; stroke-opacity:0.1; fill:none" points="
  202.177,306.195 2352.76,306.195 
  "/>
<polyline clip-path="url(#clip260)" style="stroke:#000000; stroke-linecap:butt; stroke-linejoin:round; stroke-width:4; stroke-opacity:1; fill:none" points="
  202.177,1486.45 202.177,47.2441 
  "/>
<polyline clip-path="url(#clip260)" style="stroke:#000000; stroke-linecap:butt; stroke-linejoin:round; stroke-width:4; stroke-opacity:1; fill:none" points="
  202.177,1445.72 221.074,1445.72 
  "/>
<polyline clip-path="url(#clip260)" style="stroke:#000000; stroke-linecap:butt; stroke-linejoin:round; stroke-width:4; stroke-opacity:1; fill:none" points="
  202.177,1160.84 221.074,1160.84 
  "/>
<polyline clip-path="url(#clip260)" style="stroke:#000000; stroke-linecap:butt; stroke-linejoin:round; stroke-width:4; stroke-opacity:1; fill:none" points="
  202.177,875.955 221.074,875.955 
  "/>
<polyline clip-path="url(#clip260)" style="stroke:#000000; stroke-linecap:butt; stroke-linejoin:round; stroke-width:4; stroke-opacity:1; fill:none" points="
  202.177,591.075 221.074,591.075 
  "/>
<polyline clip-path="url(#clip260)" style="stroke:#000000; stroke-linecap:butt; stroke-linejoin:round; stroke-width:4; stroke-opacity:1; fill:none" points="
  202.177,306.195 221.074,306.195 
  "/>
<path clip-path="url(#clip260)" d="M154.232 1431.51 Q150.621 1431.51 148.793 1435.08 Q146.987 1438.62 146.987 1445.75 Q146.987 1452.86 148.793 1456.42 Q150.621 1459.96 154.232 1459.96 Q157.867 1459.96 159.672 1456.42 Q161.501 1452.86 161.501 1445.75 Q161.501 1438.62 159.672 1435.08 Q157.867 1431.51 154.232 1431.51 M154.232 1427.81 Q160.042 1427.81 163.098 1432.42 Q166.177 1437 166.177 1445.75 Q166.177 1454.48 163.098 1459.08 Q160.042 1463.67 154.232 1463.67 Q148.422 1463.67 145.343 1459.08 Q142.288 1454.48 142.288 1445.75 Q142.288 1437 145.343 1432.42 Q148.422 1427.81 154.232 1427.81 Z" fill="#000000" fill-rule="evenodd" fill-opacity="1" /><path clip-path="url(#clip260)" d="M54.5569 1174.18 L62.1958 1174.18 L62.1958 1147.81 L53.8856 1149.48 L53.8856 1145.22 L62.1495 1143.56 L66.8254 1143.56 L66.8254 1174.18 L74.4642 1174.18 L74.4642 1178.12 L54.5569 1178.12 L54.5569 1174.18 Z" fill="#000000" fill-rule="evenodd" fill-opacity="1" /><path clip-path="url(#clip260)" d="M93.9086 1146.63 Q90.2975 1146.63 88.4688 1150.2 Q86.6632 1153.74 86.6632 1160.87 Q86.6632 1167.98 88.4688 1171.54 Q90.2975 1175.08 93.9086 1175.08 Q97.5428 1175.08 99.3483 1171.54 Q101.177 1167.98 101.177 1160.87 Q101.177 1153.74 99.3483 1150.2 Q97.5428 1146.63 93.9086 1146.63 M93.9086 1142.93 Q99.7187 1142.93 102.774 1147.54 Q105.853 1152.12 105.853 1160.87 Q105.853 1169.6 102.774 1174.2 Q99.7187 1178.79 93.9086 1178.79 Q88.0984 1178.79 85.0197 1174.2 Q81.9642 1169.6 81.9642 1160.87 Q81.9642 1152.12 85.0197 1147.54 Q88.0984 1142.93 93.9086 1142.93 Z" fill="#000000" fill-rule="evenodd" fill-opacity="1" /><path clip-path="url(#clip260)" d="M124.07 1146.63 Q120.459 1146.63 118.631 1150.2 Q116.825 1153.74 116.825 1160.87 Q116.825 1167.98 118.631 1171.54 Q120.459 1175.08 124.07 1175.08 Q127.705 1175.08 129.51 1171.54 Q131.339 1167.98 131.339 1160.87 Q131.339 1153.74 129.51 1150.2 Q127.705 1146.63 124.07 1146.63 M124.07 1142.93 Q129.881 1142.93 132.936 1147.54 Q136.015 1152.12 136.015 1160.87 Q136.015 1169.6 132.936 1174.2 Q129.881 1178.79 124.07 1178.79 Q118.26 1178.79 115.182 1174.2 Q112.126 1169.6 112.126 1160.87 Q112.126 1152.12 115.182 1147.54 Q118.26 1142.93 124.07 1142.93 Z" fill="#000000" fill-rule="evenodd" fill-opacity="1" /><path clip-path="url(#clip260)" d="M154.232 1146.63 Q150.621 1146.63 148.793 1150.2 Q146.987 1153.74 146.987 1160.87 Q146.987 1167.98 148.793 1171.54 Q150.621 1175.08 154.232 1175.08 Q157.867 1175.08 159.672 1171.54 Q161.501 1167.98 161.501 1160.87 Q161.501 1153.74 159.672 1150.2 Q157.867 1146.63 154.232 1146.63 M154.232 1142.93 Q160.042 1142.93 163.098 1147.54 Q166.177 1152.12 166.177 1160.87 Q166.177 1169.6 163.098 1174.2 Q160.042 1178.79 154.232 1178.79 Q148.422 1178.79 145.343 1174.2 Q142.288 1169.6 142.288 1160.87 Q142.288 1152.12 145.343 1147.54 Q148.422 1142.93 154.232 1142.93 Z" fill="#000000" fill-rule="evenodd" fill-opacity="1" /><path clip-path="url(#clip260)" d="M57.7745 889.3 L74.0939 889.3 L74.0939 893.235 L52.1495 893.235 L52.1495 889.3 Q54.8115 886.545 59.3949 881.916 Q64.0013 877.263 65.1819 875.92 Q67.4272 873.397 68.3068 871.661 Q69.2096 869.902 69.2096 868.212 Q69.2096 865.458 67.2652 863.721 Q65.3439 861.985 62.2421 861.985 Q60.043 861.985 57.5893 862.749 Q55.1588 863.513 52.381 865.064 L52.381 860.342 Q55.2051 859.208 57.6588 858.629 Q60.1124 858.05 62.1495 858.05 Q67.5198 858.05 70.7142 860.735 Q73.9087 863.42 73.9087 867.911 Q73.9087 870.041 73.0985 871.962 Q72.3115 873.86 70.205 876.453 Q69.6263 877.124 66.5245 880.342 Q63.4226 883.536 57.7745 889.3 Z" fill="#000000" fill-rule="evenodd" fill-opacity="1" /><path clip-path="url(#clip260)" d="M93.9086 861.754 Q90.2975 861.754 88.4688 865.319 Q86.6632 868.86 86.6632 875.99 Q86.6632 883.096 88.4688 886.661 Q90.2975 890.203 93.9086 890.203 Q97.5428 890.203 99.3483 886.661 Q101.177 883.096 101.177 875.99 Q101.177 868.86 99.3483 865.319 Q97.5428 861.754 93.9086 861.754 M93.9086 858.05 Q99.7187 858.05 102.774 862.657 Q105.853 867.24 105.853 875.99 Q105.853 884.717 102.774 889.323 Q99.7187 893.906 93.9086 893.906 Q88.0984 893.906 85.0197 889.323 Q81.9642 884.717 81.9642 875.99 Q81.9642 867.24 85.0197 862.657 Q88.0984 858.05 93.9086 858.05 Z" fill="#000000" fill-rule="evenodd" fill-opacity="1" /><path clip-path="url(#clip260)" d="M124.07 861.754 Q120.459 861.754 118.631 865.319 Q116.825 868.86 116.825 875.99 Q116.825 883.096 118.631 886.661 Q120.459 890.203 124.07 890.203 Q127.705 890.203 129.51 886.661 Q131.339 883.096 131.339 875.99 Q131.339 868.86 129.51 865.319 Q127.705 861.754 124.07 861.754 M124.07 858.05 Q129.881 858.05 132.936 862.657 Q136.015 867.24 136.015 875.99 Q136.015 884.717 132.936 889.323 Q129.881 893.906 124.07 893.906 Q118.26 893.906 115.182 889.323 Q112.126 884.717 112.126 875.99 Q112.126 867.24 115.182 862.657 Q118.26 858.05 124.07 858.05 Z" fill="#000000" fill-rule="evenodd" fill-opacity="1" /><path clip-path="url(#clip260)" d="M154.232 861.754 Q150.621 861.754 148.793 865.319 Q146.987 868.86 146.987 875.99 Q146.987 883.096 148.793 886.661 Q150.621 890.203 154.232 890.203 Q157.867 890.203 159.672 886.661 Q161.501 883.096 161.501 875.99 Q161.501 868.86 159.672 865.319 Q157.867 861.754 154.232 861.754 M154.232 858.05 Q160.042 858.05 163.098 862.657 Q166.177 867.24 166.177 875.99 Q166.177 884.717 163.098 889.323 Q160.042 893.906 154.232 893.906 Q148.422 893.906 145.343 889.323 Q142.288 884.717 142.288 875.99 Q142.288 867.24 145.343 862.657 Q148.422 858.05 154.232 858.05 Z" fill="#000000" fill-rule="evenodd" fill-opacity="1" /><path clip-path="url(#clip260)" d="M67.9133 589.721 Q71.2698 590.438 73.1448 592.707 Q75.0429 594.975 75.0429 598.309 Q75.0429 603.424 71.5244 606.225 Q68.0059 609.026 61.5245 609.026 Q59.3486 609.026 57.0338 608.586 Q54.7421 608.17 52.2884 607.313 L52.2884 602.799 Q54.2328 603.934 56.5477 604.512 Q58.8625 605.091 61.3856 605.091 Q65.7837 605.091 68.0754 603.355 Q70.3902 601.619 70.3902 598.309 Q70.3902 595.253 68.2374 593.54 Q66.1078 591.804 62.2884 591.804 L58.2606 591.804 L58.2606 587.961 L62.4735 587.961 Q65.9226 587.961 67.7513 586.596 Q69.58 585.207 69.58 582.614 Q69.58 579.952 67.6819 578.54 Q65.8069 577.105 62.2884 577.105 Q60.3671 577.105 58.168 577.522 Q55.969 577.938 53.3301 578.818 L53.3301 574.651 Q55.9921 573.911 58.3069 573.54 Q60.6449 573.17 62.705 573.17 Q68.0291 573.17 71.1309 575.6 Q74.2327 578.008 74.2327 582.128 Q74.2327 584.998 72.5892 586.989 Q70.9457 588.957 67.9133 589.721 Z" fill="#000000" fill-rule="evenodd" fill-opacity="1" /><path clip-path="url(#clip260)" d="M93.9086 576.874 Q90.2975 576.874 88.4688 580.438 Q86.6632 583.98 86.6632 591.11 Q86.6632 598.216 88.4688 601.781 Q90.2975 605.322 93.9086 605.322 Q97.5428 605.322 99.3483 601.781 Q101.177 598.216 101.177 591.11 Q101.177 583.98 99.3483 580.438 Q97.5428 576.874 93.9086 576.874 M93.9086 573.17 Q99.7187 573.17 102.774 577.776 Q105.853 582.36 105.853 591.11 Q105.853 599.836 102.774 604.443 Q99.7187 609.026 93.9086 609.026 Q88.0984 609.026 85.0197 604.443 Q81.9642 599.836 81.9642 591.11 Q81.9642 582.36 85.0197 577.776 Q88.0984 573.17 93.9086 573.17 Z" fill="#000000" fill-rule="evenodd" fill-opacity="1" /><path clip-path="url(#clip260)" d="M124.07 576.874 Q120.459 576.874 118.631 580.438 Q116.825 583.98 116.825 591.11 Q116.825 598.216 118.631 601.781 Q120.459 605.322 124.07 605.322 Q127.705 605.322 129.51 601.781 Q131.339 598.216 131.339 591.11 Q131.339 583.98 129.51 580.438 Q127.705 576.874 124.07 576.874 M124.07 573.17 Q129.881 573.17 132.936 577.776 Q136.015 582.36 136.015 591.11 Q136.015 599.836 132.936 604.443 Q129.881 609.026 124.07 609.026 Q118.26 609.026 115.182 604.443 Q112.126 599.836 112.126 591.11 Q112.126 582.36 115.182 577.776 Q118.26 573.17 124.07 573.17 Z" fill="#000000" fill-rule="evenodd" fill-opacity="1" /><path clip-path="url(#clip260)" d="M154.232 576.874 Q150.621 576.874 148.793 580.438 Q146.987 583.98 146.987 591.11 Q146.987 598.216 148.793 601.781 Q150.621 605.322 154.232 605.322 Q157.867 605.322 159.672 601.781 Q161.501 598.216 161.501 591.11 Q161.501 583.98 159.672 580.438 Q157.867 576.874 154.232 576.874 M154.232 573.17 Q160.042 573.17 163.098 577.776 Q166.177 582.36 166.177 591.11 Q166.177 599.836 163.098 604.443 Q160.042 609.026 154.232 609.026 Q148.422 609.026 145.343 604.443 Q142.288 599.836 142.288 591.11 Q142.288 582.36 145.343 577.776 Q148.422 573.17 154.232 573.17 Z" fill="#000000" fill-rule="evenodd" fill-opacity="1" /><path clip-path="url(#clip260)" d="M66.5939 292.989 L54.7884 311.438 L66.5939 311.438 L66.5939 292.989 M65.367 288.915 L71.2466 288.915 L71.2466 311.438 L76.1772 311.438 L76.1772 315.326 L71.2466 315.326 L71.2466 323.475 L66.5939 323.475 L66.5939 315.326 L50.9921 315.326 L50.9921 310.813 L65.367 288.915 Z" fill="#000000" fill-rule="evenodd" fill-opacity="1" /><path clip-path="url(#clip260)" d="M93.9086 291.993 Q90.2975 291.993 88.4688 295.558 Q86.6632 299.1 86.6632 306.229 Q86.6632 313.336 88.4688 316.901 Q90.2975 320.442 93.9086 320.442 Q97.5428 320.442 99.3483 316.901 Q101.177 313.336 101.177 306.229 Q101.177 299.1 99.3483 295.558 Q97.5428 291.993 93.9086 291.993 M93.9086 288.29 Q99.7187 288.29 102.774 292.896 Q105.853 297.479 105.853 306.229 Q105.853 314.956 102.774 319.563 Q99.7187 324.146 93.9086 324.146 Q88.0984 324.146 85.0197 319.563 Q81.9642 314.956 81.9642 306.229 Q81.9642 297.479 85.0197 292.896 Q88.0984 288.29 93.9086 288.29 Z" fill="#000000" fill-rule="evenodd" fill-opacity="1" /><path clip-path="url(#clip260)" d="M124.07 291.993 Q120.459 291.993 118.631 295.558 Q116.825 299.1 116.825 306.229 Q116.825 313.336 118.631 316.901 Q120.459 320.442 124.07 320.442 Q127.705 320.442 129.51 316.901 Q131.339 313.336 131.339 306.229 Q131.339 299.1 129.51 295.558 Q127.705 291.993 124.07 291.993 M124.07 288.29 Q129.881 288.29 132.936 292.896 Q136.015 297.479 136.015 306.229 Q136.015 314.956 132.936 319.563 Q129.881 324.146 124.07 324.146 Q118.26 324.146 115.182 319.563 Q112.126 314.956 112.126 306.229 Q112.126 297.479 115.182 292.896 Q118.26 288.29 124.07 288.29 Z" fill="#000000" fill-rule="evenodd" fill-opacity="1" /><path clip-path="url(#clip260)" d="M154.232 291.993 Q150.621 291.993 148.793 295.558 Q146.987 299.1 146.987 306.229 Q146.987 313.336 148.793 316.901 Q150.621 320.442 154.232 320.442 Q157.867 320.442 159.672 316.901 Q161.501 313.336 161.501 306.229 Q161.501 299.1 159.672 295.558 Q157.867 291.993 154.232 291.993 M154.232 288.29 Q160.042 288.29 163.098 292.896 Q166.177 297.479 166.177 306.229 Q166.177 314.956 163.098 319.563 Q160.042 324.146 154.232 324.146 Q148.422 324.146 145.343 319.563 Q142.288 314.956 142.288 306.229 Q142.288 297.479 145.343 292.896 Q148.422 288.29 154.232 288.29 Z" fill="#000000" fill-rule="evenodd" fill-opacity="1" /><path clip-path="url(#clip262)" d="
M320.462 1273.93 L320.462 1445.72 L357.992 1445.72 L357.992 1273.93 L320.462 1273.93 L320.462 1273.93  Z
  " fill="#009af9" fill-rule="evenodd" fill-opacity="1"/>
<polyline clip-path="url(#clip262)" style="stroke:#000000; stroke-linecap:butt; stroke-linejoin:round; stroke-width:4; stroke-opacity:1; fill:none" points="
  320.462,1273.93 320.462,1445.72 357.992,1445.72 357.992,1273.93 320.462,1273.93 
  "/>
<path clip-path="url(#clip262)" d="
M357.992 1224.93 L357.992 1445.72 L395.522 1445.72 L395.522 1224.93 L357.992 1224.93 L357.992 1224.93  Z
  " fill="#009af9" fill-rule="evenodd" fill-opacity="1"/>
<polyline clip-path="url(#clip262)" style="stroke:#000000; stroke-linecap:butt; stroke-linejoin:round; stroke-width:4; stroke-opacity:1; fill:none" points="
  357.992,1224.93 357.992,1445.72 395.522,1445.72 395.522,1224.93 357.992,1224.93 
  "/>
<path clip-path="url(#clip262)" d="
M395.522 993.896 L395.522 1445.72 L433.051 1445.72 L433.051 993.896 L395.522 993.896 L395.522 993.896  Z
  " fill="#009af9" fill-rule="evenodd" fill-opacity="1"/>
<polyline clip-path="url(#clip262)" style="stroke:#000000; stroke-linecap:butt; stroke-linejoin:round; stroke-width:4; stroke-opacity:1; fill:none" points="
  395.522,993.896 395.522,1445.72 433.051,1445.72 433.051,993.896 395.522,993.896 
  "/>
<path clip-path="url(#clip262)" d="
M433.051 735.224 L433.051 1445.72 L470.581 1445.72 L470.581 735.224 L433.051 735.224 L433.051 735.224  Z
  " fill="#009af9" fill-rule="evenodd" fill-opacity="1"/>
<polyline clip-path="url(#clip262)" style="stroke:#000000; stroke-linecap:butt; stroke-linejoin:round; stroke-width:4; stroke-opacity:1; fill:none" points="
  433.051,735.224 433.051,1445.72 470.581,1445.72 470.581,735.224 433.051,735.224 
  "/>
<path clip-path="url(#clip262)" d="
M470.581 385.391 L470.581 1445.72 L508.11 1445.72 L508.11 385.391 L470.581 385.391 L470.581 385.391  Z
  " fill="#009af9" fill-rule="evenodd" fill-opacity="1"/>
<polyline clip-path="url(#clip262)" style="stroke:#000000; stroke-linecap:butt; stroke-linejoin:round; stroke-width:4; stroke-opacity:1; fill:none" points="
  470.581,385.391 470.581,1445.72 508.11,1445.72 508.11,385.391 470.581,385.391 
  "/>
<path clip-path="url(#clip262)" d="
M508.11 159.481 L508.11 1445.72 L545.64 1445.72 L545.64 159.481 L508.11 159.481 L508.11 159.481  Z
  " fill="#009af9" fill-rule="evenodd" fill-opacity="1"/>
<polyline clip-path="url(#clip262)" style="stroke:#000000; stroke-linecap:butt; stroke-linejoin:round; stroke-width:4; stroke-opacity:1; fill:none" points="
  508.11,159.481 508.11,1445.72 545.64,1445.72 545.64,159.481 508.11,159.481 
  "/>
<path clip-path="url(#clip262)" d="
M545.64 87.9763 L545.64 1445.72 L583.169 1445.72 L583.169 87.9763 L545.64 87.9763 L545.64 87.9763  Z
  " fill="#009af9" fill-rule="evenodd" fill-opacity="1"/>
<polyline clip-path="url(#clip262)" style="stroke:#000000; stroke-linecap:butt; stroke-linejoin:round; stroke-width:4; stroke-opacity:1; fill:none" points="
  545.64,87.9763 545.64,1445.72 583.169,1445.72 583.169,87.9763 545.64,87.9763 
  "/>
<path clip-path="url(#clip262)" d="
M583.169 209.05 L583.169 1445.72 L620.699 1445.72 L620.699 209.05 L583.169 209.05 L583.169 209.05  Z
  " fill="#009af9" fill-rule="evenodd" fill-opacity="1"/>
<polyline clip-path="url(#clip262)" style="stroke:#000000; stroke-linecap:butt; stroke-linejoin:round; stroke-width:4; stroke-opacity:1; fill:none" points="
  583.169,209.05 583.169,1445.72 620.699,1445.72 620.699,209.05 583.169,209.05 
  "/>
<path clip-path="url(#clip262)" d="
M620.699 504.186 L620.699 1445.72 L658.228 1445.72 L658.228 504.186 L620.699 504.186 L620.699 504.186  Z
  " fill="#009af9" fill-rule="evenodd" fill-opacity="1"/>
<polyline clip-path="url(#clip262)" style="stroke:#000000; stroke-linecap:butt; stroke-linejoin:round; stroke-width:4; stroke-opacity:1; fill:none" points="
  620.699,504.186 620.699,1445.72 658.228,1445.72 658.228,504.186 620.699,504.186 
  "/>
<path clip-path="url(#clip262)" d="
M658.228 809.293 L658.228 1445.72 L695.758 1445.72 L695.758 809.293 L658.228 809.293 L658.228 809.293  Z
  " fill="#009af9" fill-rule="evenodd" fill-opacity="1"/>
<polyline clip-path="url(#clip262)" style="stroke:#000000; stroke-linecap:butt; stroke-linejoin:round; stroke-width:4; stroke-opacity:1; fill:none" points="
  658.228,809.293 658.228,1445.72 695.758,1445.72 695.758,809.293 658.228,809.293 
  "/>
<path clip-path="url(#clip262)" d="
M695.758 1024.95 L695.758 1445.72 L733.288 1445.72 L733.288 1024.95 L695.758 1024.95 L695.758 1024.95  Z
  " fill="#009af9" fill-rule="evenodd" fill-opacity="1"/>
<polyline clip-path="url(#clip262)" style="stroke:#000000; stroke-linecap:butt; stroke-linejoin:round; stroke-width:4; stroke-opacity:1; fill:none" points="
  695.758,1024.95 695.758,1445.72 733.288,1445.72 733.288,1024.95 695.758,1024.95 
  "/>
<path clip-path="url(#clip262)" d="
M733.288 1293.59 L733.288 1445.72 L770.817 1445.72 L770.817 1293.59 L733.288 1293.59 L733.288 1293.59  Z
  " fill="#009af9" fill-rule="evenodd" fill-opacity="1"/>
<polyline clip-path="url(#clip262)" style="stroke:#000000; stroke-linecap:butt; stroke-linejoin:round; stroke-width:4; stroke-opacity:1; fill:none" points="
  733.288,1293.59 733.288,1445.72 770.817,1445.72 770.817,1293.59 733.288,1293.59 
  "/>
<path clip-path="url(#clip262)" d="
M770.817 1368.23 L770.817 1445.72 L808.347 1445.72 L808.347 1368.23 L770.817 1368.23 L770.817 1368.23  Z
  " fill="#009af9" fill-rule="evenodd" fill-opacity="1"/>
<polyline clip-path="url(#clip262)" style="stroke:#000000; stroke-linecap:butt; stroke-linejoin:round; stroke-width:4; stroke-opacity:1; fill:none" points="
  770.817,1368.23 770.817,1445.72 808.347,1445.72 808.347,1368.23 770.817,1368.23 
  "/>
<path clip-path="url(#clip262)" d="
M808.347 1407.54 L808.347 1445.72 L845.876 1445.72 L845.876 1407.54 L808.347 1407.54 L808.347 1407.54  Z
  " fill="#009af9" fill-rule="evenodd" fill-opacity="1"/>
<polyline clip-path="url(#clip262)" style="stroke:#000000; stroke-linecap:butt; stroke-linejoin:round; stroke-width:4; stroke-opacity:1; fill:none" points="
  808.347,1407.54 808.347,1445.72 845.876,1445.72 845.876,1407.54 808.347,1407.54 
  "/>
<path clip-path="url(#clip262)" d="
M845.876 1420.65 L845.876 1445.72 L883.406 1445.72 L883.406 1420.65 L845.876 1420.65 L845.876 1420.65  Z
  " fill="#009af9" fill-rule="evenodd" fill-opacity="1"/>
<polyline clip-path="url(#clip262)" style="stroke:#000000; stroke-linecap:butt; stroke-linejoin:round; stroke-width:4; stroke-opacity:1; fill:none" points="
  845.876,1420.65 845.876,1445.72 883.406,1445.72 883.406,1420.65 845.876,1420.65 
  "/>
<path clip-path="url(#clip262)" d="
M883.406 1426.91 L883.406 1445.72 L920.935 1445.72 L920.935 1426.91 L883.406 1426.91 L883.406 1426.91  Z
  " fill="#009af9" fill-rule="evenodd" fill-opacity="1"/>
<polyline clip-path="url(#clip262)" style="stroke:#000000; stroke-linecap:butt; stroke-linejoin:round; stroke-width:4; stroke-opacity:1; fill:none" points="
  883.406,1426.91 883.406,1445.72 920.935,1445.72 920.935,1426.91 883.406,1426.91 
  "/>
<path clip-path="url(#clip262)" d="
M920.935 1426.06 L920.935 1445.72 L958.465 1445.72 L958.465 1426.06 L920.935 1426.06 L920.935 1426.06  Z
  " fill="#009af9" fill-rule="evenodd" fill-opacity="1"/>
<polyline clip-path="url(#clip262)" style="stroke:#000000; stroke-linecap:butt; stroke-linejoin:round; stroke-width:4; stroke-opacity:1; fill:none" points="
  920.935,1426.06 920.935,1445.72 958.465,1445.72 958.465,1426.06 920.935,1426.06 
  "/>
<path clip-path="url(#clip262)" d="
M958.465 1431.19 L958.465 1445.72 L995.995 1445.72 L995.995 1431.19 L958.465 1431.19 L958.465 1431.19  Z
  " fill="#009af9" fill-rule="evenodd" fill-opacity="1"/>
<polyline clip-path="url(#clip262)" style="stroke:#000000; stroke-linecap:butt; stroke-linejoin:round; stroke-width:4; stroke-opacity:1; fill:none" points="
  958.465,1431.19 958.465,1445.72 995.995,1445.72 995.995,1431.19 958.465,1431.19 
  "/>
<path clip-path="url(#clip262)" d="
M995.995 1423.78 L995.995 1445.72 L1033.52 1445.72 L1033.52 1423.78 L995.995 1423.78 L995.995 1423.78  Z
  " fill="#009af9" fill-rule="evenodd" fill-opacity="1"/>
<polyline clip-path="url(#clip262)" style="stroke:#000000; stroke-linecap:butt; stroke-linejoin:round; stroke-width:4; stroke-opacity:1; fill:none" points="
  995.995,1423.78 995.995,1445.72 1033.52,1445.72 1033.52,1423.78 995.995,1423.78 
  "/>
<path clip-path="url(#clip262)" d="
M1033.52 1427.2 L1033.52 1445.72 L1071.05 1445.72 L1071.05 1427.2 L1033.52 1427.2 L1033.52 1427.2  Z
  " fill="#009af9" fill-rule="evenodd" fill-opacity="1"/>
<polyline clip-path="url(#clip262)" style="stroke:#000000; stroke-linecap:butt; stroke-linejoin:round; stroke-width:4; stroke-opacity:1; fill:none" points="
  1033.52,1427.2 1033.52,1445.72 1071.05,1445.72 1071.05,1427.2 1033.52,1427.2 
  "/>
<path clip-path="url(#clip262)" d="
M1071.05 1422.07 L1071.05 1445.72 L1108.58 1445.72 L1108.58 1422.07 L1071.05 1422.07 L1071.05 1422.07  Z
  " fill="#009af9" fill-rule="evenodd" fill-opacity="1"/>
<polyline clip-path="url(#clip262)" style="stroke:#000000; stroke-linecap:butt; stroke-linejoin:round; stroke-width:4; stroke-opacity:1; fill:none" points="
  1071.05,1422.07 1071.05,1445.72 1108.58,1445.72 1108.58,1422.07 1071.05,1422.07 
  "/>
<path clip-path="url(#clip262)" d="
M1108.58 1415.8 L1108.58 1445.72 L1146.11 1445.72 L1146.11 1415.8 L1108.58 1415.8 L1108.58 1415.8  Z
  " fill="#009af9" fill-rule="evenodd" fill-opacity="1"/>
<polyline clip-path="url(#clip262)" style="stroke:#000000; stroke-linecap:butt; stroke-linejoin:round; stroke-width:4; stroke-opacity:1; fill:none" points="
  1108.58,1415.8 1108.58,1445.72 1146.11,1445.72 1146.11,1415.8 1108.58,1415.8 
  "/>
<path clip-path="url(#clip262)" d="
M1146.11 1374.21 L1146.11 1445.72 L1183.64 1445.72 L1183.64 1374.21 L1146.11 1374.21 L1146.11 1374.21  Z
  " fill="#009af9" fill-rule="evenodd" fill-opacity="1"/>
<polyline clip-path="url(#clip262)" style="stroke:#000000; stroke-linecap:butt; stroke-linejoin:round; stroke-width:4; stroke-opacity:1; fill:none" points="
  1146.11,1374.21 1146.11,1445.72 1183.64,1445.72 1183.64,1374.21 1146.11,1374.21 
  "/>
<path clip-path="url(#clip262)" d="
M1183.64 1299 L1183.64 1445.72 L1221.17 1445.72 L1221.17 1299 L1183.64 1299 L1183.64 1299  Z
  " fill="#009af9" fill-rule="evenodd" fill-opacity="1"/>
<polyline clip-path="url(#clip262)" style="stroke:#000000; stroke-linecap:butt; stroke-linejoin:round; stroke-width:4; stroke-opacity:1; fill:none" points="
  1183.64,1299 1183.64,1445.72 1221.17,1445.72 1221.17,1299 1183.64,1299 
  "/>
<path clip-path="url(#clip262)" d="
M1221.17 1150.01 L1221.17 1445.72 L1258.7 1445.72 L1258.7 1150.01 L1221.17 1150.01 L1221.17 1150.01  Z
  " fill="#009af9" fill-rule="evenodd" fill-opacity="1"/>
<polyline clip-path="url(#clip262)" style="stroke:#000000; stroke-linecap:butt; stroke-linejoin:round; stroke-width:4; stroke-opacity:1; fill:none" points="
  1221.17,1150.01 1221.17,1445.72 1258.7,1445.72 1258.7,1150.01 1221.17,1150.01 
  "/>
<path clip-path="url(#clip262)" d="
M1258.7 1002.73 L1258.7 1445.72 L1296.23 1445.72 L1296.23 1002.73 L1258.7 1002.73 L1258.7 1002.73  Z
  " fill="#009af9" fill-rule="evenodd" fill-opacity="1"/>
<polyline clip-path="url(#clip262)" style="stroke:#000000; stroke-linecap:butt; stroke-linejoin:round; stroke-width:4; stroke-opacity:1; fill:none" points="
  1258.7,1002.73 1258.7,1445.72 1296.23,1445.72 1296.23,1002.73 1258.7,1002.73 
  "/>
<path clip-path="url(#clip262)" d="
M1296.23 810.718 L1296.23 1445.72 L1333.76 1445.72 L1333.76 810.718 L1296.23 810.718 L1296.23 810.718  Z
  " fill="#009af9" fill-rule="evenodd" fill-opacity="1"/>
<polyline clip-path="url(#clip262)" style="stroke:#000000; stroke-linecap:butt; stroke-linejoin:round; stroke-width:4; stroke-opacity:1; fill:none" points="
  1296.23,810.718 1296.23,1445.72 1333.76,1445.72 1333.76,810.718 1296.23,810.718 
  "/>
<path clip-path="url(#clip262)" d="
M1333.76 680.812 L1333.76 1445.72 L1371.29 1445.72 L1371.29 680.812 L1333.76 680.812 L1333.76 680.812  Z
  " fill="#009af9" fill-rule="evenodd" fill-opacity="1"/>
<polyline clip-path="url(#clip262)" style="stroke:#000000; stroke-linecap:butt; stroke-linejoin:round; stroke-width:4; stroke-opacity:1; fill:none" points="
  1333.76,680.812 1333.76,1445.72 1371.29,1445.72 1371.29,680.812 1333.76,680.812 
  "/>
<path clip-path="url(#clip262)" d="
M1371.29 639.789 L1371.29 1445.72 L1408.82 1445.72 L1408.82 639.789 L1371.29 639.789 L1371.29 639.789  Z
  " fill="#009af9" fill-rule="evenodd" fill-opacity="1"/>
<polyline clip-path="url(#clip262)" style="stroke:#000000; stroke-linecap:butt; stroke-linejoin:round; stroke-width:4; stroke-opacity:1; fill:none" points="
  1371.29,639.789 1371.29,1445.72 1408.82,1445.72 1408.82,639.789 1371.29,639.789 
  "/>
<path clip-path="url(#clip262)" d="
M1408.82 722.12 L1408.82 1445.72 L1446.35 1445.72 L1446.35 722.12 L1408.82 722.12 L1408.82 722.12  Z
  " fill="#009af9" fill-rule="evenodd" fill-opacity="1"/>
<polyline clip-path="url(#clip262)" style="stroke:#000000; stroke-linecap:butt; stroke-linejoin:round; stroke-width:4; stroke-opacity:1; fill:none" points="
  1408.82,722.12 1408.82,1445.72 1446.35,1445.72 1446.35,722.12 1408.82,722.12 
  "/>
<path clip-path="url(#clip262)" d="
M1446.35 779.95 L1446.35 1445.72 L1483.88 1445.72 L1483.88 779.95 L1446.35 779.95 L1446.35 779.95  Z
  " fill="#009af9" fill-rule="evenodd" fill-opacity="1"/>
<polyline clip-path="url(#clip262)" style="stroke:#000000; stroke-linecap:butt; stroke-linejoin:round; stroke-width:4; stroke-opacity:1; fill:none" points="
  1446.35,779.95 1446.35,1445.72 1483.88,1445.72 1483.88,779.95 1446.35,779.95 
  "/>
<path clip-path="url(#clip262)" d="
M1483.88 1101.3 L1483.88 1445.72 L1521.41 1445.72 L1521.41 1101.3 L1483.88 1101.3 L1483.88 1101.3  Z
  " fill="#009af9" fill-rule="evenodd" fill-opacity="1"/>
<polyline clip-path="url(#clip262)" style="stroke:#000000; stroke-linecap:butt; stroke-linejoin:round; stroke-width:4; stroke-opacity:1; fill:none" points="
  1483.88,1101.3 1483.88,1445.72 1521.41,1445.72 1521.41,1101.3 1483.88,1101.3 
  "/>
<path clip-path="url(#clip262)" d="
M1521.41 1248.86 L1521.41 1445.72 L1558.94 1445.72 L1558.94 1248.86 L1521.41 1248.86 L1521.41 1248.86  Z
  " fill="#009af9" fill-rule="evenodd" fill-opacity="1"/>
<polyline clip-path="url(#clip262)" style="stroke:#000000; stroke-linecap:butt; stroke-linejoin:round; stroke-width:4; stroke-opacity:1; fill:none" points="
  1521.41,1248.86 1521.41,1445.72 1558.94,1445.72 1558.94,1248.86 1521.41,1248.86 
  "/>
<path clip-path="url(#clip262)" d="
M1558.94 1347.43 L1558.94 1445.72 L1596.47 1445.72 L1596.47 1347.43 L1558.94 1347.43 L1558.94 1347.43  Z
  " fill="#009af9" fill-rule="evenodd" fill-opacity="1"/>
<polyline clip-path="url(#clip262)" style="stroke:#000000; stroke-linecap:butt; stroke-linejoin:round; stroke-width:4; stroke-opacity:1; fill:none" points="
  1558.94,1347.43 1558.94,1445.72 1596.47,1445.72 1596.47,1347.43 1558.94,1347.43 
  "/>
<path clip-path="url(#clip262)" d="
M1596.47 1391.87 L1596.47 1445.72 L1634 1445.72 L1634 1391.87 L1596.47 1391.87 L1596.47 1391.87  Z
  " fill="#009af9" fill-rule="evenodd" fill-opacity="1"/>
<polyline clip-path="url(#clip262)" style="stroke:#000000; stroke-linecap:butt; stroke-linejoin:round; stroke-width:4; stroke-opacity:1; fill:none" points="
  1596.47,1391.87 1596.47,1445.72 1634,1445.72 1634,1391.87 1596.47,1391.87 
  "/>
<path clip-path="url(#clip262)" d="
M1634 1415.23 L1634 1445.72 L1671.53 1445.72 L1671.53 1415.23 L1634 1415.23 L1634 1415.23  Z
  " fill="#009af9" fill-rule="evenodd" fill-opacity="1"/>
<polyline clip-path="url(#clip262)" style="stroke:#000000; stroke-linecap:butt; stroke-linejoin:round; stroke-width:4; stroke-opacity:1; fill:none" points="
  1634,1415.23 1634,1445.72 1671.53,1445.72 1671.53,1415.23 1634,1415.23 
  "/>
<path clip-path="url(#clip262)" d="
M1671.53 1420.36 L1671.53 1445.72 L1709.06 1445.72 L1709.06 1420.36 L1671.53 1420.36 L1671.53 1420.36  Z
  " fill="#009af9" fill-rule="evenodd" fill-opacity="1"/>
<polyline clip-path="url(#clip262)" style="stroke:#000000; stroke-linecap:butt; stroke-linejoin:round; stroke-width:4; stroke-opacity:1; fill:none" points="
  1671.53,1420.36 1671.53,1445.72 1709.06,1445.72 1709.06,1420.36 1671.53,1420.36 
  "/>
<path clip-path="url(#clip262)" d="
M1709.06 1412.38 L1709.06 1445.72 L1746.59 1445.72 L1746.59 1412.38 L1709.06 1412.38 L1709.06 1412.38  Z
  " fill="#009af9" fill-rule="evenodd" fill-opacity="1"/>
<polyline clip-path="url(#clip262)" style="stroke:#000000; stroke-linecap:butt; stroke-linejoin:round; stroke-width:4; stroke-opacity:1; fill:none" points="
  1709.06,1412.38 1709.06,1445.72 1746.59,1445.72 1746.59,1412.38 1709.06,1412.38 
  "/>
<path clip-path="url(#clip262)" d="
M1746.59 1403.27 L1746.59 1445.72 L1784.12 1445.72 L1784.12 1403.27 L1746.59 1403.27 L1746.59 1403.27  Z
  " fill="#009af9" fill-rule="evenodd" fill-opacity="1"/>
<polyline clip-path="url(#clip262)" style="stroke:#000000; stroke-linecap:butt; stroke-linejoin:round; stroke-width:4; stroke-opacity:1; fill:none" points="
  1746.59,1403.27 1746.59,1445.72 1784.12,1445.72 1784.12,1403.27 1746.59,1403.27 
  "/>
<path clip-path="url(#clip262)" d="
M1784.12 1383.33 L1784.12 1445.72 L1821.65 1445.72 L1821.65 1383.33 L1784.12 1383.33 L1784.12 1383.33  Z
  " fill="#009af9" fill-rule="evenodd" fill-opacity="1"/>
<polyline clip-path="url(#clip262)" style="stroke:#000000; stroke-linecap:butt; stroke-linejoin:round; stroke-width:4; stroke-opacity:1; fill:none" points="
  1784.12,1383.33 1784.12,1445.72 1821.65,1445.72 1821.65,1383.33 1784.12,1383.33 
  "/>
<path clip-path="url(#clip262)" d="
M1821.65 1294.73 L1821.65 1445.72 L1859.17 1445.72 L1859.17 1294.73 L1821.65 1294.73 L1821.65 1294.73  Z
  " fill="#009af9" fill-rule="evenodd" fill-opacity="1"/>
<polyline clip-path="url(#clip262)" style="stroke:#000000; stroke-linecap:butt; stroke-linejoin:round; stroke-width:4; stroke-opacity:1; fill:none" points="
  1821.65,1294.73 1821.65,1445.72 1859.17,1445.72 1859.17,1294.73 1821.65,1294.73 
  "/>
<path clip-path="url(#clip262)" d="
M1859.17 1214.68 L1859.17 1445.72 L1896.7 1445.72 L1896.7 1214.68 L1859.17 1214.68 L1859.17 1214.68  Z
  " fill="#009af9" fill-rule="evenodd" fill-opacity="1"/>
<polyline clip-path="url(#clip262)" style="stroke:#000000; stroke-linecap:butt; stroke-linejoin:round; stroke-width:4; stroke-opacity:1; fill:none" points="
  1859.17,1214.68 1859.17,1445.72 1896.7,1445.72 1896.7,1214.68 1859.17,1214.68 
  "/>
<path clip-path="url(#clip262)" d="
M1896.7 1099.3 L1896.7 1445.72 L1934.23 1445.72 L1934.23 1099.3 L1896.7 1099.3 L1896.7 1099.3  Z
  " fill="#009af9" fill-rule="evenodd" fill-opacity="1"/>
<polyline clip-path="url(#clip262)" style="stroke:#000000; stroke-linecap:butt; stroke-linejoin:round; stroke-width:4; stroke-opacity:1; fill:none" points="
  1896.7,1099.3 1896.7,1445.72 1934.23,1445.72 1934.23,1099.3 1896.7,1099.3 
  "/>
<path clip-path="url(#clip262)" d="
M1934.23 958.286 L1934.23 1445.72 L1971.76 1445.72 L1971.76 958.286 L1934.23 958.286 L1934.23 958.286  Z
  " fill="#009af9" fill-rule="evenodd" fill-opacity="1"/>
<polyline clip-path="url(#clip262)" style="stroke:#000000; stroke-linecap:butt; stroke-linejoin:round; stroke-width:4; stroke-opacity:1; fill:none" points="
  1934.23,958.286 1934.23,1445.72 1971.76,1445.72 1971.76,958.286 1934.23,958.286 
  "/>
<path clip-path="url(#clip262)" d="
M1971.76 863.99 L1971.76 1445.72 L2009.29 1445.72 L2009.29 863.99 L1971.76 863.99 L1971.76 863.99  Z
  " fill="#009af9" fill-rule="evenodd" fill-opacity="1"/>
<polyline clip-path="url(#clip262)" style="stroke:#000000; stroke-linecap:butt; stroke-linejoin:round; stroke-width:4; stroke-opacity:1; fill:none" points="
  1971.76,863.99 1971.76,1445.72 2009.29,1445.72 2009.29,863.99 1971.76,863.99 
  "/>
<path clip-path="url(#clip262)" d="
M2009.29 826.386 L2009.29 1445.72 L2046.82 1445.72 L2046.82 826.386 L2009.29 826.386 L2009.29 826.386  Z
  " fill="#009af9" fill-rule="evenodd" fill-opacity="1"/>
<polyline clip-path="url(#clip262)" style="stroke:#000000; stroke-linecap:butt; stroke-linejoin:round; stroke-width:4; stroke-opacity:1; fill:none" points="
  2009.29,826.386 2009.29,1445.72 2046.82,1445.72 2046.82,826.386 2009.29,826.386 
  "/>
<path clip-path="url(#clip262)" d="
M2046.82 849.176 L2046.82 1445.72 L2084.35 1445.72 L2084.35 849.176 L2046.82 849.176 L2046.82 849.176  Z
  " fill="#009af9" fill-rule="evenodd" fill-opacity="1"/>
<polyline clip-path="url(#clip262)" style="stroke:#000000; stroke-linecap:butt; stroke-linejoin:round; stroke-width:4; stroke-opacity:1; fill:none" points="
  2046.82,849.176 2046.82,1445.72 2084.35,1445.72 2084.35,849.176 2046.82,849.176 
  "/>
<path clip-path="url(#clip262)" d="
M2084.35 944.611 L2084.35 1445.72 L2121.88 1445.72 L2121.88 944.611 L2084.35 944.611 L2084.35 944.611  Z
  " fill="#009af9" fill-rule="evenodd" fill-opacity="1"/>
<polyline clip-path="url(#clip262)" style="stroke:#000000; stroke-linecap:butt; stroke-linejoin:round; stroke-width:4; stroke-opacity:1; fill:none" points="
  2084.35,944.611 2084.35,1445.72 2121.88,1445.72 2121.88,944.611 2084.35,944.611 
  "/>
<path clip-path="url(#clip262)" d="
M2121.88 1107.56 L2121.88 1445.72 L2159.41 1445.72 L2159.41 1107.56 L2121.88 1107.56 L2121.88 1107.56  Z
  " fill="#009af9" fill-rule="evenodd" fill-opacity="1"/>
<polyline clip-path="url(#clip262)" style="stroke:#000000; stroke-linecap:butt; stroke-linejoin:round; stroke-width:4; stroke-opacity:1; fill:none" points="
  2121.88,1107.56 2121.88,1445.72 2159.41,1445.72 2159.41,1107.56 2121.88,1107.56 
  "/>
<path clip-path="url(#clip262)" d="
M2159.41 1244.02 L2159.41 1445.72 L2196.94 1445.72 L2196.94 1244.02 L2159.41 1244.02 L2159.41 1244.02  Z
  " fill="#009af9" fill-rule="evenodd" fill-opacity="1"/>
<polyline clip-path="url(#clip262)" style="stroke:#000000; stroke-linecap:butt; stroke-linejoin:round; stroke-width:4; stroke-opacity:1; fill:none" points="
  2159.41,1244.02 2159.41,1445.72 2196.94,1445.72 2196.94,1244.02 2159.41,1244.02 
  "/>
<path clip-path="url(#clip262)" d="
M2196.94 1204.14 L2196.94 1445.72 L2234.47 1445.72 L2234.47 1204.14 L2196.94 1204.14 L2196.94 1204.14  Z
  " fill="#009af9" fill-rule="evenodd" fill-opacity="1"/>
<polyline clip-path="url(#clip262)" style="stroke:#000000; stroke-linecap:butt; stroke-linejoin:round; stroke-width:4; stroke-opacity:1; fill:none" points="
  2196.94,1204.14 2196.94,1445.72 2234.47,1445.72 2234.47,1204.14 2196.94,1204.14 
  "/>
<circle clip-path="url(#clip262)" style="fill:#009af9; stroke:none; fill-opacity:0" cx="339.227" cy="1273.93" r="2"/>
<circle clip-path="url(#clip262)" style="fill:#009af9; stroke:none; fill-opacity:0" cx="376.757" cy="1224.93" r="2"/>
<circle clip-path="url(#clip262)" style="fill:#009af9; stroke:none; fill-opacity:0" cx="414.286" cy="993.896" r="2"/>
<circle clip-path="url(#clip262)" style="fill:#009af9; stroke:none; fill-opacity:0" cx="451.816" cy="735.224" r="2"/>
<circle clip-path="url(#clip262)" style="fill:#009af9; stroke:none; fill-opacity:0" cx="489.345" cy="385.391" r="2"/>
<circle clip-path="url(#clip262)" style="fill:#009af9; stroke:none; fill-opacity:0" cx="526.875" cy="159.481" r="2"/>
<circle clip-path="url(#clip262)" style="fill:#009af9; stroke:none; fill-opacity:0" cx="564.405" cy="87.9763" r="2"/>
<circle clip-path="url(#clip262)" style="fill:#009af9; stroke:none; fill-opacity:0" cx="601.934" cy="209.05" r="2"/>
<circle clip-path="url(#clip262)" style="fill:#009af9; stroke:none; fill-opacity:0" cx="639.464" cy="504.186" r="2"/>
<circle clip-path="url(#clip262)" style="fill:#009af9; stroke:none; fill-opacity:0" cx="676.993" cy="809.293" r="2"/>
<circle clip-path="url(#clip262)" style="fill:#009af9; stroke:none; fill-opacity:0" cx="714.523" cy="1024.95" r="2"/>
<circle clip-path="url(#clip262)" style="fill:#009af9; stroke:none; fill-opacity:0" cx="752.052" cy="1293.59" r="2"/>
<circle clip-path="url(#clip262)" style="fill:#009af9; stroke:none; fill-opacity:0" cx="789.582" cy="1368.23" r="2"/>
<circle clip-path="url(#clip262)" style="fill:#009af9; stroke:none; fill-opacity:0" cx="827.112" cy="1407.54" r="2"/>
<circle clip-path="url(#clip262)" style="fill:#009af9; stroke:none; fill-opacity:0" cx="864.641" cy="1420.65" r="2"/>
<circle clip-path="url(#clip262)" style="fill:#009af9; stroke:none; fill-opacity:0" cx="902.171" cy="1426.91" r="2"/>
<circle clip-path="url(#clip262)" style="fill:#009af9; stroke:none; fill-opacity:0" cx="939.7" cy="1426.06" r="2"/>
<circle clip-path="url(#clip262)" style="fill:#009af9; stroke:none; fill-opacity:0" cx="977.23" cy="1431.19" r="2"/>
<circle clip-path="url(#clip262)" style="fill:#009af9; stroke:none; fill-opacity:0" cx="1014.76" cy="1423.78" r="2"/>
<circle clip-path="url(#clip262)" style="fill:#009af9; stroke:none; fill-opacity:0" cx="1052.29" cy="1427.2" r="2"/>
<circle clip-path="url(#clip262)" style="fill:#009af9; stroke:none; fill-opacity:0" cx="1089.82" cy="1422.07" r="2"/>
<circle clip-path="url(#clip262)" style="fill:#009af9; stroke:none; fill-opacity:0" cx="1127.35" cy="1415.8" r="2"/>
<circle clip-path="url(#clip262)" style="fill:#009af9; stroke:none; fill-opacity:0" cx="1164.88" cy="1374.21" r="2"/>
<circle clip-path="url(#clip262)" style="fill:#009af9; stroke:none; fill-opacity:0" cx="1202.41" cy="1299" r="2"/>
<circle clip-path="url(#clip262)" style="fill:#009af9; stroke:none; fill-opacity:0" cx="1239.94" cy="1150.01" r="2"/>
<circle clip-path="url(#clip262)" style="fill:#009af9; stroke:none; fill-opacity:0" cx="1277.47" cy="1002.73" r="2"/>
<circle clip-path="url(#clip262)" style="fill:#009af9; stroke:none; fill-opacity:0" cx="1315" cy="810.718" r="2"/>
<circle clip-path="url(#clip262)" style="fill:#009af9; stroke:none; fill-opacity:0" cx="1352.53" cy="680.812" r="2"/>
<circle clip-path="url(#clip262)" style="fill:#009af9; stroke:none; fill-opacity:0" cx="1390.06" cy="639.789" r="2"/>
<circle clip-path="url(#clip262)" style="fill:#009af9; stroke:none; fill-opacity:0" cx="1427.58" cy="722.12" r="2"/>
<circle clip-path="url(#clip262)" style="fill:#009af9; stroke:none; fill-opacity:0" cx="1465.11" cy="779.95" r="2"/>
<circle clip-path="url(#clip262)" style="fill:#009af9; stroke:none; fill-opacity:0" cx="1502.64" cy="1101.3" r="2"/>
<circle clip-path="url(#clip262)" style="fill:#009af9; stroke:none; fill-opacity:0" cx="1540.17" cy="1248.86" r="2"/>
<circle clip-path="url(#clip262)" style="fill:#009af9; stroke:none; fill-opacity:0" cx="1577.7" cy="1347.43" r="2"/>
<circle clip-path="url(#clip262)" style="fill:#009af9; stroke:none; fill-opacity:0" cx="1615.23" cy="1391.87" r="2"/>
<circle clip-path="url(#clip262)" style="fill:#009af9; stroke:none; fill-opacity:0" cx="1652.76" cy="1415.23" r="2"/>
<circle clip-path="url(#clip262)" style="fill:#009af9; stroke:none; fill-opacity:0" cx="1690.29" cy="1420.36" r="2"/>
<circle clip-path="url(#clip262)" style="fill:#009af9; stroke:none; fill-opacity:0" cx="1727.82" cy="1412.38" r="2"/>
<circle clip-path="url(#clip262)" style="fill:#009af9; stroke:none; fill-opacity:0" cx="1765.35" cy="1403.27" r="2"/>
<circle clip-path="url(#clip262)" style="fill:#009af9; stroke:none; fill-opacity:0" cx="1802.88" cy="1383.33" r="2"/>
<circle clip-path="url(#clip262)" style="fill:#009af9; stroke:none; fill-opacity:0" cx="1840.41" cy="1294.73" r="2"/>
<circle clip-path="url(#clip262)" style="fill:#009af9; stroke:none; fill-opacity:0" cx="1877.94" cy="1214.68" r="2"/>
<circle clip-path="url(#clip262)" style="fill:#009af9; stroke:none; fill-opacity:0" cx="1915.47" cy="1099.3" r="2"/>
<circle clip-path="url(#clip262)" style="fill:#009af9; stroke:none; fill-opacity:0" cx="1953" cy="958.286" r="2"/>
<circle clip-path="url(#clip262)" style="fill:#009af9; stroke:none; fill-opacity:0" cx="1990.53" cy="863.99" r="2"/>
<circle clip-path="url(#clip262)" style="fill:#009af9; stroke:none; fill-opacity:0" cx="2028.06" cy="826.386" r="2"/>
<circle clip-path="url(#clip262)" style="fill:#009af9; stroke:none; fill-opacity:0" cx="2065.59" cy="849.176" r="2"/>
<circle clip-path="url(#clip262)" style="fill:#009af9; stroke:none; fill-opacity:0" cx="2103.12" cy="944.611" r="2"/>
<circle clip-path="url(#clip262)" style="fill:#009af9; stroke:none; fill-opacity:0" cx="2140.65" cy="1107.56" r="2"/>
<circle clip-path="url(#clip262)" style="fill:#009af9; stroke:none; fill-opacity:0" cx="2178.18" cy="1244.02" r="2"/>
<circle clip-path="url(#clip262)" style="fill:#009af9; stroke:none; fill-opacity:0" cx="2215.71" cy="1204.14" r="2"/>
<path clip-path="url(#clip260)" d="
M1989.69 198.898 L2281.07 198.898 L2281.07 95.2176 L1989.69 95.2176  Z
  " fill="#ffffff" fill-rule="evenodd" fill-opacity="1"/>
<polyline clip-path="url(#clip260)" style="stroke:#000000; stroke-linecap:butt; stroke-linejoin:round; stroke-width:4; stroke-opacity:1; fill:none" points="
  1989.69,198.898 2281.07,198.898 2281.07,95.2176 1989.69,95.2176 1989.69,198.898 
  "/>
<path clip-path="url(#clip260)" d="
M2013.58 167.794 L2156.95 167.794 L2156.95 126.322 L2013.58 126.322 L2013.58 167.794  Z
  " fill="#009af9" fill-rule="evenodd" fill-opacity="1"/>
<polyline clip-path="url(#clip260)" style="stroke:#000000; stroke-linecap:butt; stroke-linejoin:round; stroke-width:4; stroke-opacity:1; fill:none" points="
  2013.58,167.794 2156.95,167.794 2156.95,126.322 2013.58,126.322 2013.58,167.794 
  "/>
<path clip-path="url(#clip260)" d="M2194.69 166.745 Q2192.89 171.375 2191.17 172.787 Q2189.46 174.199 2186.59 174.199 L2183.19 174.199 L2183.19 170.634 L2185.69 170.634 Q2187.45 170.634 2188.42 169.8 Q2189.39 168.967 2190.57 165.865 L2191.34 163.921 L2180.85 138.412 L2185.36 138.412 L2193.46 158.689 L2201.57 138.412 L2206.08 138.412 L2194.69 166.745 Z" fill="#000000" fill-rule="evenodd" fill-opacity="1" /><path clip-path="url(#clip260)" d="M2213.37 160.402 L2221.01 160.402 L2221.01 134.037 L2212.7 135.703 L2212.7 131.444 L2220.96 129.778 L2225.64 129.778 L2225.64 160.402 L2233.28 160.402 L2233.28 164.338 L2213.37 164.338 L2213.37 160.402 Z" fill="#000000" fill-rule="evenodd" fill-opacity="1" /></svg>
